<svg width="64" height="64" viewBox="0 0 64 64" fill="none" xmlns="http://www.w3.org/2000/svg">
<path d="M61.5651 19.7411C59.1407 13.896 55.0375 8.90074 49.7743 5.38693C44.5111 1.87312 38.3242 -0.00151951 31.9956 9.24135e-07C25.6671 0.00152136 19.481 1.87913 14.2195 5.39547C8.95797 8.91181 4.85722 13.909 2.43562 19.7553C0.0140205 25.6017 -0.619695 32.0346 0.614582 38.241C1.84886 44.4474 4.89571 50.1486 9.36997 54.6238C13.8442 59.099 19.545 62.1474 25.7517 63.3835C31.9583 64.6196 38.3922 63.988 44.2399 61.5685C52.083 58.3172 58.3139 52.0847 61.5628 44.2412C64.8116 36.3977 64.8124 27.5852 61.5651 19.7411ZM57.3324 44.0083L56.7944 42.2796L58.387 41.4475C58.0761 42.3083 57.7246 43.1547 57.3324 43.9868V44.0083ZM38.2998 48.2334L38.6513 48.0971L38.9239 47.9752L42.2383 49.0153L43.4292 51.8846L41.607 55.3278L37.8765 54.1872L36.6641 51.3179L38.2998 48.2334ZM27.1944 51.3179L26.0035 54.1872L22.3161 55.3349L20.4508 51.8918L21.6417 49.0224L25.0063 47.968L25.3076 48.1043L25.5659 48.2047L27.1944 51.3179ZM6.05973 42.71C5.89473 42.3154 5.74408 41.9209 5.60059 41.5192L7.0354 42.2939L6.55474 43.8649C6.37539 43.4847 6.20321 43.0973 6.04538 42.71H6.05973ZM6.04538 21.226C6.20321 20.8386 6.37539 20.4585 6.54757 20.0854L7.0354 21.6779L5.60059 22.4598C5.75125 22.0438 5.90908 21.6349 6.08125 21.226H6.04538ZM5.0195 39.7617C3.54543 34.6997 3.54543 29.3223 5.0195 24.2603L7.45149 22.9691L8.60651 26.7422C8.63491 26.8344 8.68296 26.9194 8.74737 26.9912C8.81177 27.063 8.89099 27.12 8.97956 27.1583L12.4231 28.593C12.5087 28.6318 12.6017 28.6519 12.6957 28.6519C12.7897 28.6519 12.8827 28.6318 12.9683 28.593L15.142 27.4094C14.31 30.4207 14.31 33.6013 15.142 36.6127L12.9898 35.4578C12.9042 35.4189 12.8113 35.3989 12.7172 35.3989C12.6232 35.3989 12.5302 35.4189 12.4446 35.4578L9.00108 36.8924C8.91251 36.9307 8.83329 36.9877 8.76889 37.0595C8.70449 37.1314 8.65643 37.2163 8.62803 37.3085L7.47301 41.0816L5.0195 39.7617ZM25.6448 15.7384L25.3076 15.8676L24.9059 16.0469L21.6776 15.057L20.4867 12.1877L22.3161 8.72297L26.0609 9.89939L27.2518 12.7687L25.6448 15.7384ZM36.6641 12.7759L37.855 9.90656L41.5926 8.73015L43.4077 12.2092L42.2168 15.0785L39.0172 16.0541C38.7589 15.9393 38.4935 15.8317 38.228 15.7313L36.6641 12.7759ZM48.0851 25.3219C48.0277 25.1785 47.9632 25.0494 47.9058 24.9131L48.8599 21.7425L51.7295 20.5517L55.2017 22.3665L54.0252 26.1038L51.1556 27.2946L48.2286 25.738C48.1712 25.6017 48.121 25.4582 48.0636 25.3219H48.0851ZM46.7436 35.3143L46.184 33.4995C46.1565 33.4077 46.1087 33.3233 46.0441 33.2525C45.9795 33.1817 45.8998 33.1264 45.811 33.0906L43.1996 32.0074L45.811 30.9243C45.899 30.8872 45.978 30.8314 46.0424 30.7608C46.1068 30.6902 46.1551 30.6065 46.184 30.5154L46.7508 28.6503C47.2423 30.8348 47.2423 33.1012 46.7508 35.2856L46.7436 35.3143ZM39.6628 42.796L38.0989 45.8662L37.7976 46.0025L37.4102 46.146L34.1317 45.1202L32.6466 41.5622L34.2751 37.6385L38.1993 39.2668L39.6628 42.796ZM26.1829 45.9738C26.0465 45.9164 25.9174 45.8447 25.7739 45.7873L24.2172 42.796L25.6878 39.2596L29.612 37.6313L31.2405 41.5622L29.8057 45.1058L26.5774 46.1173L26.2187 45.981L26.1829 45.9738ZM17.1723 28.8368L17.7032 30.5154C17.7308 30.606 17.7779 30.6895 17.8411 30.7601C17.9042 30.8307 17.982 30.8867 18.069 30.9243L20.6876 32.0074L18.069 33.0906C17.982 33.1281 17.9042 33.1841 17.8411 33.2547C17.7779 33.3253 17.7308 33.4089 17.7032 33.4995L17.1795 35.1637C16.7276 33.0789 16.7276 30.9216 17.1795 28.8368H17.1723ZM24.2315 21.2188L25.8457 18.1702L26.19 18.0052L26.4626 17.9048L29.777 18.9234L31.2118 22.4526L29.5833 26.3836L25.6878 24.7552L24.2315 21.2188ZM37.7832 18.0052L38.0272 18.12L39.67 21.2188L38.2352 24.7552L34.311 26.3836L32.6466 22.4526L34.0814 18.9234L37.4748 17.8904L37.7761 18.0052H37.7832ZM45.9903 26.1971L46.0907 26.4553L45.0505 29.8411L41.5137 31.2758L37.5895 29.6474L39.1965 25.781L42.7333 24.3464L45.8468 25.9962C45.8468 26.0823 45.9329 26.1684 45.9688 26.2545L45.9903 26.1971ZM31.9436 35.2569L29.6407 34.3029L28.6866 32.0074L29.6407 29.7048L31.9436 28.7579L34.2393 29.7048L35.2293 32.0074L34.2751 34.3101L31.9436 35.2569ZM27.2805 32.0074L26.8142 33.1336L24.088 32.0074L26.8142 30.8812L27.2805 32.0074ZM36.6067 32.0074L37.073 30.8812L39.792 32.0074L37.073 33.1336L36.6067 32.0074ZM36.3628 29.1812L35.2293 28.7077L34.763 27.5815L37.4891 26.4553L36.3628 29.1812ZM33.0771 26.8785L31.9508 27.3448L30.8244 26.8785L31.9508 24.1599L33.0771 26.8785ZM29.117 27.5959L28.6507 28.7221L27.5244 29.1955L26.3981 26.4697L29.117 27.5959ZM26.3192 29.6905L22.3878 31.3045L18.851 29.8339L17.8323 26.606C17.8897 26.4697 17.9399 26.3334 17.9901 26.1971C18.0403 26.0608 18.1049 25.9675 18.1623 25.8456L21.1539 24.289L24.6907 25.7236L26.3192 29.6905ZM18.0116 37.7819L17.861 37.3874L18.8725 34.1738L22.4093 32.7391L26.3335 34.3674L24.6907 38.2625L21.1539 39.6972L18.1766 38.1478C18.1193 38.0186 18.0475 37.8895 17.9901 37.7532L18.0116 37.7819ZM27.5172 34.805L28.6435 35.2713L29.1099 36.4047L26.3909 37.5309L27.5172 34.805ZM30.8173 37.1076L31.9436 36.6414L33.0699 37.1076L31.9436 39.8263L30.8173 37.1076ZM34.7701 36.3903L35.2293 35.3L36.3556 34.8337L37.4891 37.5595L34.7701 36.3903ZM37.568 34.2957L41.4922 32.6674L45.029 34.102L46.0549 37.4591C45.9831 37.6456 45.9042 37.8321 45.8253 38.0115L42.7333 39.6541L39.1965 38.2195L37.568 34.2957ZM43.0705 22.9476C42.9841 22.9067 42.8898 22.8855 42.7943 22.8855C42.6988 22.8855 42.6044 22.9067 42.5181 22.9476L39.8996 24.0307L40.9685 21.434C41.0094 21.3477 41.0306 21.2534 41.0306 21.1579C41.0306 21.0623 41.0094 20.968 40.9685 20.8817L40.0861 19.2103C41.9776 20.3997 43.5783 21.9979 44.7707 23.8873L43.0705 22.9476ZM33.4358 17.7685C33.344 17.796 33.2596 17.8438 33.1888 17.9084C33.118 17.9729 33.0627 18.0526 33.0269 18.1415L31.9436 20.7597L30.8603 18.1487C30.8224 18.0611 30.7664 17.9826 30.6959 17.9183C30.6254 17.854 30.5421 17.8054 30.4514 17.7757L28.6722 17.2305C29.7567 16.9791 30.8662 16.8515 31.9795 16.8503C33.0776 16.8538 34.172 16.9764 35.2436 17.2161L33.4358 17.7685ZM22.8972 21.434L23.9876 24.0523L21.3691 22.9691C21.2827 22.9282 21.1884 22.9071 21.0929 22.9071C20.9974 22.9071 20.903 22.9282 20.8167 22.9691L19.2528 23.7869C20.4115 21.978 21.9455 20.4393 23.7509 19.2749L22.8972 20.8817C22.8563 20.968 22.8351 21.0623 22.8351 21.1579C22.8351 21.2534 22.8563 21.3477 22.8972 21.434ZM15.8594 25.3219C15.8164 25.4224 15.7805 25.53 15.7375 25.6304L12.6311 27.2587L9.76153 26.068L8.61368 22.345L12.0572 20.5158L14.9268 21.7066L15.9886 25.0637C15.946 25.1454 15.9077 25.2292 15.8738 25.3148L15.8594 25.3219ZM9.75435 37.9756L12.624 36.7848L15.759 38.4203L15.8594 38.6929C15.8953 38.779 15.9384 38.8651 15.9742 38.9583L14.9268 42.2796L12.0572 43.4775L8.61368 41.6483L9.75435 37.9756ZM20.8167 41.0529C20.903 41.0938 20.9974 41.115 21.0929 41.115C21.1884 41.115 21.2827 41.0938 21.3691 41.0529L23.9876 39.9698L22.8972 42.588C22.8563 42.6744 22.8351 42.7687 22.8351 42.8642C22.8351 42.9597 22.8563 43.054 22.8972 43.1404L23.7509 44.6826C21.9651 43.5295 20.4462 42.0083 19.2958 40.2208L20.8167 41.0529ZM30.4514 46.2751C30.5425 46.2462 30.6262 46.1979 30.6968 46.1335C30.7675 46.0691 30.8232 45.9901 30.8603 45.9021L31.9436 43.291L33.0269 45.8662C33.0624 45.954 33.1167 46.033 33.1862 46.0975C33.2556 46.1619 33.3384 46.2103 33.4286 46.2392L35.1575 46.7844C33.0496 47.2471 30.8663 47.2471 28.7583 46.7844L30.4514 46.2751ZM40.9685 42.5808L39.8852 39.9626L42.5037 41.0458C42.5901 41.0866 42.6844 41.1078 42.7799 41.1078C42.8755 41.1078 42.9698 41.0866 43.0561 41.0458L44.7277 40.1276C43.5434 41.9842 41.9663 43.5587 40.1076 44.74L40.9685 43.1332C41.0075 43.0463 41.0277 42.9522 41.0277 42.857C41.0277 42.7618 41.0075 42.6677 40.9685 42.5808ZM48.0851 38.6929L48.2358 38.3127L51.1771 36.749L54.0467 37.9397L55.2233 41.677L51.7295 43.4632L48.8599 42.2796L47.8843 39.0946C47.9488 38.9512 48.0134 38.8149 48.0708 38.6714L48.0851 38.6929ZM55.1874 37.2368C55.1585 37.1465 55.1101 37.0638 55.0456 36.9943C54.9812 36.9249 54.9022 36.8705 54.8144 36.835L51.3708 35.4004C51.2843 35.36 51.1901 35.3391 51.0946 35.3391C50.9992 35.3391 50.9049 35.36 50.8184 35.4004L48.8025 36.4692C49.5959 33.5306 49.5959 30.4341 48.8025 27.4954L50.8041 28.5571C50.8906 28.5975 50.9848 28.6184 51.0803 28.6184C51.1757 28.6184 51.27 28.5975 51.3565 28.5571L54.8 27.1224C54.8879 27.0869 54.9668 27.0326 55.0313 26.9631C55.0958 26.8937 55.1442 26.811 55.1731 26.7207L56.3711 22.9117L58.9753 24.3464C60.4177 29.3763 60.4177 34.7103 58.9753 39.7402L56.4285 41.0673L55.1874 37.2368ZM57.8992 21.2547C58.0785 21.6923 58.2507 22.1298 58.4014 22.5674L56.78 21.721L57.3324 19.9707C57.5333 20.3939 57.7198 20.8243 57.8992 21.2547ZM56.4644 18.3352L55.5963 21.1112L52.0524 19.2677C51.9673 19.227 51.8741 19.2058 51.7797 19.2058C51.6854 19.2058 51.5922 19.227 51.5071 19.2677L48.0636 20.7023C47.9747 20.7381 47.895 20.7935 47.8305 20.8643C47.7659 20.935 47.7181 21.0194 47.6906 21.1112L47.0234 23.2632C45.4941 20.6289 43.2998 18.4422 40.66 16.922L42.8553 16.2549C42.947 16.2274 43.0315 16.1796 43.1023 16.115C43.173 16.0504 43.2284 15.9708 43.2642 15.8819L44.699 12.4387C44.7399 12.3524 44.7611 12.2581 44.7611 12.1626C44.7611 12.067 44.7399 11.9727 44.699 11.8864L42.8553 8.34996L45.6173 7.482C50.1905 10.0027 53.9601 13.7619 56.4931 18.328L56.4644 18.3352ZM43.9672 6.61403L42.2383 7.13051L41.3989 5.55238C41.8437 5.7102 42.2885 5.88236 42.7261 6.06169C43.1637 6.24102 43.5583 6.42035 43.9672 6.61403ZM39.6413 4.97852L40.9685 7.55373L37.1663 8.75167C37.0752 8.78053 36.9914 8.82883 36.9208 8.89324C36.8502 8.95764 36.7944 9.03661 36.7574 9.12468L35.3226 12.5607C35.2817 12.647 35.2605 12.7413 35.2605 12.8368C35.2605 12.9324 35.2817 13.0267 35.3226 13.113L36.3987 15.1502C33.4479 14.3539 30.3388 14.3539 27.3881 15.1502L28.4785 13.0915C28.5194 13.0052 28.5406 12.9108 28.5406 12.8153C28.5406 12.7198 28.5194 12.6255 28.4785 12.5392L27.0437 9.10316C27.0082 9.01532 26.9539 8.93636 26.8844 8.8719C26.815 8.80743 26.7322 8.75904 26.642 8.73015L22.8326 7.53221L24.1526 5.00004C29.2076 3.51431 34.5823 3.50685 39.6413 4.97852ZM22.4667 5.58108L21.6489 7.13051L19.9702 6.62838C20.3862 6.42753 20.8167 6.24102 21.2471 6.06169C21.6776 5.88236 22.0578 5.73889 22.4667 5.59542V5.58108ZM18.3273 7.47482L21.0391 8.32844L19.1882 11.8649C19.1492 11.9517 19.129 12.0458 19.129 12.141C19.129 12.2362 19.1492 12.3304 19.1882 12.4172L20.623 15.8604C20.6612 15.9489 20.7183 16.0282 20.7901 16.0925C20.8619 16.1569 20.9469 16.205 21.0391 16.2334L23.2702 16.9149C20.5943 18.4558 18.3798 20.685 16.8566 23.3708L16.1392 21.0108C16.1103 20.9206 16.0619 20.8378 15.9975 20.7684C15.933 20.699 15.854 20.6446 15.7662 20.6091L12.3298 19.1744C12.2421 19.1339 12.1467 19.1129 12.05 19.1129C11.9534 19.1129 11.858 19.1339 11.7703 19.1744L8.28368 21.0251L7.47301 18.3854C9.99176 13.7993 13.7541 10.0175 18.3273 7.47482ZM7.4228 45.5578L8.22629 42.9395L11.7129 44.7902C11.8085 44.8383 11.9143 44.8629 12.0213 44.8619C12.1069 44.8627 12.192 44.8481 12.2724 44.8189L15.7088 43.3843C15.7977 43.3485 15.8773 43.2931 15.9419 43.2223C16.0065 43.1516 16.0543 43.0672 16.0818 42.9754L16.7992 40.601C18.3347 43.3215 20.5815 45.5731 23.2989 47.1144L20.9315 47.8317C20.8412 47.8606 20.7585 47.909 20.689 47.9734C20.6196 48.0379 20.5652 48.1169 20.5297 48.2047L19.0949 51.6407C19.0541 51.727 19.0329 51.8214 19.0329 51.9169C19.0329 52.0124 19.0541 52.1067 19.0949 52.193L20.9458 55.6864L18.3345 56.4898C13.7147 53.9418 9.90956 50.1395 7.35823 45.5219L7.4228 45.5578ZM21.57 56.8557L22.3376 58.2903C21.5413 58.0034 20.7593 57.6806 19.9988 57.3219L21.57 56.8557ZM24.1239 58.8929L22.8326 56.4683L26.6133 55.3134C26.7051 55.2859 26.7895 55.2381 26.8603 55.1735C26.9311 55.1089 26.9864 55.0293 27.0222 54.9404L28.457 51.4972C28.496 51.4104 28.5162 51.3163 28.5162 51.2211C28.5162 51.1259 28.496 51.0317 28.457 50.9449L27.3092 48.7929C30.3111 49.625 33.4828 49.625 36.4847 48.7929L35.3584 50.9449C35.3176 51.0312 35.2964 51.1255 35.2964 51.2211C35.2964 51.3166 35.3176 51.4109 35.3584 51.4972L36.7932 54.9404C36.8303 55.0285 36.8861 55.1074 36.9567 55.1718C37.0273 55.2362 37.111 55.2845 37.2021 55.3134L40.9685 56.5042L39.6772 58.9718C34.6135 60.4182 29.244 60.4033 24.1885 58.9287L24.1239 58.8929ZM41.4492 58.4051L42.2527 56.8915L43.8955 57.3937C43.5081 57.5802 43.1207 57.7523 42.7261 57.9173C42.3316 58.0823 41.8724 58.2545 41.4492 58.4051ZM45.5599 56.5472L42.8696 55.7223L44.7277 52.2289C44.7685 52.1426 44.7897 52.0482 44.7897 51.9527C44.7897 51.8572 44.7685 51.7629 44.7277 51.6766L43.2929 48.2406C43.2571 48.1517 43.2017 48.072 43.131 48.0074C43.0602 47.9429 42.9757 47.8951 42.884 47.8676L40.5668 47.1502C43.2506 45.6402 45.4803 43.438 47.0234 40.7732L47.6977 42.9252C47.7252 43.0169 47.7731 43.1013 47.8376 43.1721C47.9022 43.2429 47.9819 43.2982 48.0708 43.334L51.5143 44.7687C51.5921 44.7995 51.6746 44.8165 51.7582 44.8189C51.8637 44.8182 51.9673 44.7911 52.0595 44.74L55.6035 42.8965L56.4572 45.6295C53.9197 50.2179 50.1437 54.001 45.5599 56.5472Z" fill="#E9B528"/>
</svg>
