<svg width="156" height="63" viewBox="0 0 156 63" fill="none" xmlns="http://www.w3.org/2000/svg">
<path d="M75.1017 53.7974C75.1053 54.0703 75.0508 54.3411 74.9414 54.5927C74.8466 54.8196 74.7031 55.0246 74.5205 55.194C74.3282 55.3654 74.1005 55.4954 73.8525 55.5754C73.6007 55.6676 73.3334 55.7136 73.0642 55.7112H72.0288V58H71V52H72.6434C72.8705 52 73.0642 52 73.2312 52C73.3725 52.0084 73.5131 52.0256 73.6521 52.0517C73.7563 52.0733 73.8589 52.1014 73.9594 52.1357C74.0502 52.171 74.1374 52.2143 74.2199 52.2651C74.5 52.4167 74.7313 52.6405 74.8879 52.9116C75.0383 53.1839 75.1141 53.4888 75.1084 53.7974H75.1017ZM73.9594 53.8491C73.982 53.5754 73.8933 53.304 73.7122 53.0927C73.6121 52.9953 73.4913 52.9203 73.3582 52.8728C73.1953 52.8168 73.0232 52.7905 72.8505 52.7952H72.0622V54.9159H72.8505C73.0019 54.9278 73.1543 54.9105 73.2987 54.865C73.4432 54.8195 73.5769 54.7467 73.6922 54.6508C73.7899 54.5414 73.864 54.414 73.9099 54.2763C73.9558 54.1385 73.9726 53.9933 73.9594 53.8491Z" fill="#8D9CA5"/>
<path d="M89.0709 58H85.6086V52H86.7335V57.1854H89.2608L89.0709 58Z" fill="#8D9CA5"/>
<path d="M103.235 58L102.751 56.4224H100.815L100.33 58H99.3042L101.241 52H102.389L104.326 58H103.235ZM102.525 55.5884C102.389 55.1358 102.26 54.6961 102.144 54.2952C102.028 53.8944 101.912 53.4353 101.815 53.0021L101.434 54.2952L101.053 55.5884H102.525Z" fill="#8D9CA5"/>
<path d="M118.67 58H114.826V57.2718L117.282 53.4049C117.336 53.334 117.398 53.2374 117.479 53.1149C117.547 53.0096 117.622 52.9084 117.704 52.812H117.364H114.942L115.18 52H118.881V52.754L116.425 56.6724C116.374 56.7652 116.315 56.8537 116.248 56.9366C116.18 57.0333 116.119 57.1171 116.064 57.1815H116.33H118.935L118.67 58Z" fill="#8D9CA5"/>
<path d="M132.916 58L132.425 56.4224H130.489L130.005 58H128.978L130.915 52H132.064L134 58H132.916ZM132.206 55.5884C132.07 55.1358 131.941 54.6961 131.825 54.2952C131.709 53.8944 131.592 53.4353 131.496 53.0021L131.115 54.2952L130.734 55.5884H132.206Z" fill="#8D9CA5"/>
<path d="M116.34 45H121.68V11.9638C121.682 11.8361 121.734 11.7142 121.826 11.6245C121.917 11.5348 122.04 11.4845 122.168 11.4845H127.054V5.91971H110.973V11.4845H115.86C115.987 11.4845 116.109 11.535 116.199 11.6249C116.29 11.7148 116.34 11.8367 116.34 11.9638V45Z" fill="#8D9CA5"/>
<path d="M71.0199 24.904C71.0131 26.6924 71.6736 28.4186 72.8716 29.7433L73.5353 30.4689L72.8716 31.1944C71.6664 32.5161 70.9986 34.2426 71 36.0337V45H76.4621V35.9272C76.4621 35.221 76.7418 34.5438 77.2397 34.0444C77.7375 33.5451 78.4128 33.2646 79.1169 33.2646C79.8209 33.2646 80.4962 33.5451 80.994 34.0444C81.4919 34.5438 81.7716 35.221 81.7716 35.9272V45H87.0811V36.0337C87.0817 34.244 86.4167 32.5184 85.2161 31.1944L84.5524 30.4689L85.2161 29.7433C86.4167 28.4193 87.0817 26.6937 87.0811 24.904V5.91971H81.7716V25.0305C81.7716 25.7367 81.4919 26.4139 80.994 26.9132C80.4962 27.4126 79.8209 27.6931 79.1169 27.6931C78.4128 27.6931 77.7375 27.4126 77.2397 26.9132C76.7418 26.4139 76.4621 25.7367 76.4621 25.0305V5.91971H71L71.0199 24.904Z" fill="#8D9CA5"/>
<path d="M156 5.91971H150.487V45H156V5.91971Z" fill="#8D9CA5"/>
<path d="M140.868 45H146.351V18.618C146.351 8.92064 138.084 5 138.084 5C138.084 5 129.811 8.92064 129.811 18.618V45H135.329V19.3174C135.329 14.0518 137.385 12.8077 138.071 11.92C138.804 12.7673 140.813 14.0652 140.813 19.3174V45H140.868Z" fill="#8D9CA5"/>
<path d="M102.425 45H107.757V18.618C107.757 8.92064 99.7196 5 99.7196 5C99.7196 5 91.6758 8.92064 91.6758 18.618V45H97.0073V19.3174C97.0073 14.0518 99.0066 12.8077 99.673 11.92C100.386 12.7673 102.339 14.0652 102.339 19.3174V45H102.425Z" fill="#8D9CA5"/>
<path d="M99.5873 27.6826L96.7825 30.4893L99.5873 33.296L102.392 30.4893L99.5873 27.6826Z" fill="#8D9CA5"/>
<path d="M138.11 27.6816L135.305 30.4883L138.11 33.2951L140.914 30.4883L138.11 27.6816Z" fill="#8D9CA5"/>
<path d="M60.588 19.4578C57.8024 12.7227 52.7681 7.16222 46.343 3.72425C39.918 0.286275 32.4999 -0.816453 25.3531 0.604011C18.2063 2.02447 11.7731 5.88022 7.15 11.5141C2.52689 17.1479 0 24.2112 0 31.5C0 38.7888 2.52689 45.8521 7.15 51.4859C11.7731 57.1198 18.2063 60.9755 25.3531 62.396C32.4999 63.8165 39.918 62.7137 46.343 59.2758C52.7681 55.8378 57.8024 50.2773 60.588 43.5422C62.1802 39.7272 63 35.6341 63 31.5C63 27.3659 62.1802 23.2728 60.588 19.4578ZM56.4287 43.3322L55.8973 41.6522L57.4652 40.8384C57.1569 41.685 56.8092 42.5184 56.4287 43.3322ZM37.7315 47.4665L38.0792 47.3287C38.1645 47.3287 38.2498 47.2434 38.3351 47.2106L41.6153 48.2344L42.783 51.0628L40.992 54.4425L37.3313 53.3203L36.157 50.4918L37.7315 47.4665ZM26.8216 50.4918L25.6604 53.3203L21.9997 54.4425L20.2021 51.0628L21.3764 48.2344L24.6566 47.1909C24.755 47.2369 24.8469 47.2893 24.9453 47.3287L25.1946 47.4272L26.8216 50.4918ZM6.05788 42.0525C5.89387 41.6719 5.74954 41.2781 5.60521 40.8909L7.03538 41.6522L6.56303 43.1944C6.3859 42.8203 6.21533 42.4397 6.05788 42.0525ZM6.05788 20.9475C6.21533 20.5669 6.37934 20.1928 6.55647 19.8188L7.03538 21.3872L5.59209 22.155C5.73642 21.7481 5.89387 21.3478 6.05788 20.9475ZM5.04102 39.1387C3.59443 34.1624 3.59443 28.8769 5.04102 23.9006L7.429 22.6341L8.57051 26.3484C8.59713 26.4388 8.64408 26.5219 8.70776 26.5912C8.77145 26.6606 8.85017 26.7145 8.9379 26.7488L12.3165 28.1531C12.4011 28.1912 12.4928 28.2108 12.5855 28.2108C12.6782 28.2108 12.7699 28.1912 12.8545 28.1531L15.0128 27.0244C14.1962 29.9834 14.1962 33.1085 15.0128 36.0675L12.8413 34.9387C12.7568 34.9007 12.6651 34.8811 12.5724 34.8811C12.4796 34.8811 12.388 34.9007 12.3034 34.9387L8.92477 36.3366C8.83783 36.3739 8.75998 36.4295 8.69657 36.4998C8.63316 36.57 8.58568 36.6531 8.55739 36.7434L7.41588 40.4578L5.04102 39.1387ZM25.2995 15.5466L24.9715 15.6778C24.8403 15.7303 24.7157 15.8025 24.5845 15.855L21.4027 14.8772L20.2283 12.0553L22.0128 8.63629L25.6604 9.79128L26.8281 12.6197L25.2995 15.5466ZM36.1176 12.6197L37.2854 9.79128L40.9592 8.63629L42.7174 12.0553L41.5497 14.8772L38.4138 15.8419L37.6397 15.5203L36.1176 12.6197ZM47.3425 24.9572C47.29 24.8259 47.2244 24.6881 47.1654 24.5569L48.1166 21.4397L50.9442 20.2716L54.3556 22.0566L53.2141 25.7184L50.3931 26.8866L47.5131 25.3575C47.4606 25.2197 47.4147 25.0819 47.3556 24.9441L47.3425 24.9572ZM45.9976 34.8009L45.4531 33.0225C45.4248 32.9322 45.3773 32.8491 45.3139 32.7788C45.2505 32.7086 45.1727 32.6529 45.0857 32.6156L42.5403 31.5197L45.112 30.4566C45.1989 30.4193 45.2767 30.3636 45.3402 30.2933C45.4036 30.2231 45.4511 30.14 45.4793 30.0497L46.0304 28.2384C46.5111 30.4008 46.4999 32.6435 45.9976 34.8009ZM39.0698 42.1247L37.5085 45.1172L37.2132 45.2484L36.8196 45.3928L33.6181 44.3822L32.1748 40.904L33.7756 37.0453L37.6331 38.6466L39.0698 42.1247ZM25.8309 45.2484L25.4308 45.0581L23.9022 42.1247L25.3389 38.6466L29.1964 37.0453L30.7906 40.904L29.3539 44.3822L26.1918 45.3797L25.8309 45.2484ZM16.981 28.4156L17.4927 30.0563C17.5218 30.1454 17.5696 30.2272 17.633 30.2962C17.6964 30.3653 17.7738 30.42 17.86 30.4566L20.412 31.5197L17.8404 32.5828C17.7541 32.6194 17.6767 32.6741 17.6133 32.7431C17.5499 32.8122 17.5021 32.894 17.473 32.9831L16.9613 34.6106C16.5217 32.569 16.5217 30.4572 16.9613 28.4156H16.981ZM23.9022 20.9147L25.4898 17.9222C25.6079 17.8697 25.7128 17.8041 25.8309 17.7581C25.949 17.7122 26.0146 17.6925 26.1065 17.6597L29.3867 18.6572L30.8234 22.1288L29.2292 25.9875L25.3717 24.3928L23.9022 20.9147ZM37.2132 17.7385L37.456 17.85L39.0698 20.895L37.6331 24.3731L33.7756 25.9678L32.1748 22.1091L33.6181 18.6375L36.8983 17.6269L37.2067 17.7385H37.2132ZM45.2628 25.8103L45.3613 26.0663L44.3444 29.3869L40.8674 30.8241L37.0099 29.2294L38.6106 25.3706L42.0614 23.9334L45.1185 25.5544C45.1185 25.6397 45.2038 25.725 45.2366 25.8103H45.2628ZM31.4598 34.7156L29.203 33.7772L28.2845 31.5197L29.2227 29.2556L31.4794 28.3238L33.7362 29.2556L34.6809 31.5197L33.7428 33.7772L31.4598 34.7156ZM26.9068 31.5197L26.4476 32.6287L23.771 31.5197L26.4476 30.4106L26.9068 31.5197ZM36.0914 31.5197L36.5506 30.4106L39.201 31.5197L36.5244 32.6287L36.0914 31.5197ZM35.8552 28.7372L34.7465 28.2778L34.2939 27.1688L36.9639 26.0597L35.8552 28.7372ZM32.621 26.4797L31.5122 26.9391L30.4035 26.4797L31.5122 23.8022L32.621 26.4797ZM28.7306 27.1359L28.2714 28.245L27.1627 28.7044L26.0605 26.0269L28.7306 27.1359ZM25.9818 29.1966L22.1309 30.7913L18.6539 29.3541L17.6567 26.1975C17.7092 26.0597 17.7485 25.9153 17.8076 25.7775C17.8666 25.6397 17.9191 25.5478 17.9716 25.4297L20.9106 23.8941L24.3876 25.3378L25.9818 29.1966ZM17.7879 37.1962C17.7354 37.065 17.696 36.9272 17.6436 36.7894L18.6342 33.6525L22.1112 32.2087L25.9621 33.81L24.3483 37.6687L20.8713 39.1059L17.9519 37.5834C17.8928 37.4522 17.8272 37.3275 17.7682 37.1962H17.7879ZM27.1233 34.2956L28.232 34.755L28.6913 35.8641L26.0212 36.9731L27.1233 34.2956ZM30.3642 36.5597L31.4729 36.1003L32.5816 36.5597L31.4729 39.2306L30.3642 36.5597ZM34.2545 35.8641L34.7137 34.755L35.8159 34.2956L36.9246 36.9731L34.2545 35.8641ZM36.9967 33.81L40.8543 32.2087L44.3313 33.6525L45.3416 36.9337C45.2694 37.1175 45.1907 37.2947 45.112 37.4784L42.0614 39.1059L38.5844 37.6687L36.9967 33.81ZM42.4025 22.6538C42.317 22.6148 42.2242 22.5946 42.1303 22.5946C42.0363 22.5946 41.9435 22.6148 41.858 22.6538L39.2863 23.7169L40.3557 21.1444C40.3947 21.0589 40.4148 20.966 40.4148 20.872C40.4148 20.7781 40.3947 20.6852 40.3557 20.5997L39.4831 18.9591C41.3361 20.13 42.9049 21.6993 44.0754 23.5528L42.4025 22.6538ZM32.9555 17.5219C32.8653 17.5502 32.7822 17.5977 32.712 17.6611C32.6417 17.7246 32.5861 17.8024 32.5488 17.8894L31.486 20.4619L30.4232 17.8894C30.3859 17.8024 30.3303 17.7246 30.26 17.6611C30.1898 17.5977 30.1068 17.5502 30.0165 17.5219L28.2845 16.9903C29.3457 16.7479 30.4303 16.6225 31.5188 16.6163C32.5919 16.6207 33.6612 16.7439 34.7072 16.9838L32.9555 17.5219ZM22.6032 21.1247L23.6922 23.6972L21.0681 22.6341C20.9835 22.596 20.8918 22.5764 20.7991 22.5764C20.7064 22.5764 20.6147 22.596 20.5301 22.6341L18.995 23.4347C20.1385 21.6454 21.6559 20.1253 23.4429 18.9788L22.6032 20.5538C22.5642 20.6393 22.5441 20.7321 22.5441 20.8261C22.5441 20.9201 22.5642 21.013 22.6032 21.0985V21.1247ZM15.7017 24.9572C15.6557 25.0556 15.6229 25.1606 15.5836 25.2591L12.5396 26.8538L9.71858 25.6856L8.60332 22.0238L11.9819 20.2256L14.8029 21.4003L15.846 24.6816C15.846 24.7603 15.7673 24.8391 15.7345 24.9244L15.7017 24.9572ZM9.72514 37.3275L12.5396 36.1856L15.6229 37.7934C15.6623 37.8787 15.6886 37.9706 15.7279 38.0559C15.7673 38.1412 15.8066 38.2266 15.846 38.3119L14.7963 41.639L11.9491 42.8072L8.60332 41.0156L9.72514 37.3275ZM20.5564 40.3791C20.6409 40.4171 20.7326 40.4367 20.8253 40.4367C20.9181 40.4367 21.0097 40.4171 21.0943 40.3791L23.6922 39.3356L22.6295 41.9081C22.5905 41.9936 22.5703 42.0865 22.5703 42.1805C22.5703 42.2744 22.5905 42.3673 22.6295 42.4528L23.4233 43.9884C21.6694 42.8553 20.1776 41.3608 19.0475 39.6047L20.5564 40.3791ZM30.023 45.5109C30.1115 45.4825 30.1929 45.4357 30.2619 45.3734C30.3309 45.3112 30.3859 45.2351 30.4232 45.15L31.486 42.5775L32.5488 45.15C32.5861 45.2351 32.6411 45.3112 32.7101 45.3734C32.7791 45.4357 32.8605 45.4825 32.949 45.5109L34.635 46.0425C32.5711 46.4953 30.4337 46.4953 28.3698 46.0425L30.023 45.5109ZM40.3688 41.9081L39.2994 39.3356L41.8711 40.4053C41.9566 40.4443 42.0494 40.4645 42.1434 40.4645C42.2373 40.4645 42.3302 40.4443 42.4156 40.4053L44.0295 39.5128C42.8698 41.3391 41.322 42.8874 39.4963 44.0475L40.3294 42.4528C40.3684 42.3673 40.3886 42.2744 40.3886 42.1805C40.3886 42.0865 40.3684 41.9936 40.3294 41.9081H40.3688ZM47.3425 38.0822C47.395 37.9641 47.4409 37.8328 47.4868 37.7081L50.38 36.1791L53.2141 37.3209L54.3687 40.9959L50.9573 42.7744L48.1297 41.6062L47.1654 38.4628C47.231 38.325 47.3031 38.1937 47.3556 38.0559L47.3425 38.0822ZM54.349 36.6516C54.3199 36.5625 54.2721 36.4806 54.2087 36.4116C54.1453 36.3425 54.0679 36.2878 53.9816 36.2512L50.5899 34.8534C50.5044 34.8144 50.4116 34.7943 50.3176 34.7943C50.2237 34.7943 50.1309 34.8144 50.0454 34.8534L48.0773 35.9034C48.8547 33.0149 48.8547 29.972 48.0773 27.0834L50.0454 28.1334C50.1309 28.1724 50.2237 28.1926 50.3176 28.1926C50.4116 28.1926 50.5044 28.1724 50.5899 28.1334L53.9685 26.7291C54.0541 26.6932 54.1311 26.6395 54.1944 26.5716C54.2578 26.5038 54.306 26.4232 54.3359 26.3353L55.5102 22.5881L58.0425 23.9006C59.4517 28.8331 59.4517 34.0619 58.0425 38.9944L55.5364 40.3069L54.349 36.6516ZM57.0125 20.9475C57.1897 21.3741 57.3537 21.8006 57.5111 22.26L55.9104 21.4266L56.4418 19.7072C56.6386 20.1272 56.8223 20.5472 56.9994 20.9738L57.0125 20.9475ZM55.6086 18.0994L54.7492 20.8294L51.2459 18.9853C51.1605 18.9463 51.0676 18.9262 50.9737 18.9262C50.8797 18.9262 50.7869 18.9463 50.7014 18.9853L47.3491 20.3635C47.2628 20.4001 47.1854 20.4547 47.122 20.5238C47.0586 20.5928 47.0108 20.6747 46.9817 20.7638L46.3256 22.9031C44.8262 20.3194 42.6778 18.1725 40.0933 16.6753L42.2451 16.0191C42.3353 15.9908 42.4184 15.9433 42.4886 15.8799C42.5588 15.8164 42.6145 15.7386 42.6518 15.6516L44.0295 12.2653C44.0701 12.1815 44.0912 12.0895 44.0912 11.9963C44.0912 11.9031 44.0701 11.8111 44.0295 11.7272L42.2188 8.2491L44.9348 7.39598C49.4328 9.87745 53.1393 13.5783 55.6283 18.0731L55.6086 18.0994ZM43.3013 6.58223L41.5956 7.11379L40.7493 5.5191C41.1888 5.6766 41.6218 5.84067 42.0614 6.01785C42.5009 6.19504 42.8749 6.37223 43.2816 6.56254L43.3013 6.58223ZM39.0501 4.96785L40.3622 7.48785L36.6228 8.66254C36.5337 8.69165 36.4519 8.73951 36.3829 8.8029C36.3139 8.8663 36.2592 8.94374 36.2226 9.03004L34.8449 12.4097C34.8059 12.4952 34.7858 12.5881 34.7858 12.6821C34.7858 12.776 34.8059 12.8689 34.8449 12.9544L35.9077 14.956C33.0091 14.1771 29.9563 14.1771 27.0577 14.956L28.1271 12.9413C28.1661 12.8558 28.1862 12.7629 28.1862 12.6689C28.1862 12.575 28.1661 12.4821 28.1271 12.3966L26.7231 9.01691C26.6873 8.93129 26.6336 8.85425 26.5658 8.7909C26.4979 8.72755 26.4174 8.67933 26.3295 8.64941L22.5835 7.47473L23.8956 4.98754C28.8402 3.54816 34.0924 3.54816 39.037 4.98754L39.0501 4.96785ZM22.1637 5.57817L21.3567 7.11379L19.756 6.58223C20.1693 6.38535 20.5892 6.2016 21.009 6.02442C21.4289 5.84723 21.8094 5.70942 22.2096 5.56504L22.1637 5.57817ZM18.1421 7.41566L20.8057 8.25566L18.995 11.7338C18.9544 11.8177 18.9332 11.9096 18.9332 12.0028C18.9332 12.096 18.9544 12.188 18.995 12.2719L20.3924 15.6516C20.4297 15.7386 20.4853 15.8164 20.5555 15.8799C20.6257 15.9433 20.7088 15.9908 20.7991 16.0191L23.01 16.6753C20.3697 18.1897 18.187 20.3889 16.6923 23.041L15.9641 20.7113C15.935 20.6222 15.8871 20.5403 15.8238 20.4713C15.7604 20.4022 15.683 20.3476 15.5967 20.311L12.2181 18.9131C12.1326 18.8741 12.0398 18.854 11.9458 18.854C11.8519 18.854 11.7591 18.8741 11.6736 18.9131L8.24249 20.7375L7.44868 18.1125C9.92655 13.6138 13.6212 9.90432 18.1093 7.4091L18.1421 7.41566ZM7.3962 44.8153L8.18345 42.2428L11.6145 44.0606C11.7071 44.1106 11.8112 44.1355 11.9163 44.1328C11.9995 44.134 12.0821 44.1184 12.1591 44.0869L15.5377 42.689C15.6239 42.6524 15.7014 42.5978 15.7647 42.5287C15.8281 42.4597 15.8759 42.3778 15.905 42.2887L16.6398 39.9394C18.1527 42.6212 20.363 44.8435 23.0362 46.3706L20.7007 47.1056C20.6116 47.1347 20.5298 47.1826 20.4608 47.246C20.3918 47.3094 20.3371 47.3868 20.3005 47.4731L18.9031 50.8528C18.8642 50.9383 18.844 51.0312 18.844 51.1251C18.844 51.2191 18.8642 51.312 18.9031 51.3975L20.7204 54.8231L18.1553 55.6106C13.6253 53.1048 9.89563 49.3694 7.3962 44.835V44.8153ZM21.3567 55.9912L22.1177 57.4218C21.3371 57.1331 20.5629 56.8181 19.815 56.4637L21.3567 55.9912ZM23.8628 57.96L22.6032 55.5843L26.3164 54.4884C26.4055 54.4593 26.4873 54.4114 26.5563 54.348C26.6253 54.2846 26.68 54.2072 26.7166 54.1209L28.1205 50.7412C28.1585 50.6566 28.1782 50.5649 28.1782 50.4722C28.1782 50.3794 28.1585 50.2877 28.1205 50.2031L26.9724 48.0178C29.9215 48.8358 33.0374 48.8358 35.9864 48.0178L34.8777 50.1506C34.8397 50.2352 34.8201 50.3269 34.8201 50.4197C34.8201 50.5124 34.8397 50.6041 34.8777 50.6887L36.2751 54.0684C36.3124 54.1554 36.3681 54.2332 36.4383 54.2967C36.5085 54.3601 36.5916 54.4076 36.6818 54.4359L40.395 55.5778L39.083 57.9993C34.1066 59.4188 28.8305 59.4029 23.8628 57.9534V57.96ZM40.828 57.4415L41.6153 55.9584L43.2226 56.4506C42.8508 56.63 42.4703 56.8006 42.0811 56.9625C41.6612 57.1331 41.2413 57.2906 40.828 57.4415ZM44.8627 55.6172L42.2385 54.8034L44.0295 51.3975C44.0685 51.312 44.0887 51.2191 44.0887 51.1251C44.0887 51.0312 44.0685 50.9383 44.0295 50.8528L42.6321 47.4731C42.5955 47.3868 42.5409 47.3094 42.4718 47.246C42.4028 47.1826 42.321 47.1347 42.2319 47.1056L39.9424 46.3837C42.5787 44.8925 44.7671 42.7215 46.2797 40.0969L46.9358 42.269C46.964 42.3594 47.0115 42.4425 47.0749 42.5127C47.1383 42.5829 47.2162 42.6386 47.3031 42.6759L50.6817 44.0737C50.7611 44.1051 50.8457 44.1207 50.931 44.1197C51.034 44.1215 51.1357 44.0966 51.2263 44.0475L54.7033 42.2362L55.543 44.9203C53.0575 49.4233 49.3566 53.1367 44.8627 55.6368" fill="#8D9CA5"/>
</svg>
