<svg xmlns="http://www.w3.org/2000/svg" viewBox="0 0 104.48 163.77"><defs><style>.cls-1{fill:#e9b528;}</style></defs><title>Asset 2</title><g id="Layer_2" data-name="Layer 2"><g id="Layer_1-2" data-name="Layer 1"><path class="cls-1" d="M18.41,158.42a2.58,2.58,0,0,1-.2,1,2.28,2.28,0,0,1-.52.76,2.4,2.4,0,0,1-.78.49,2.87,2.87,0,0,1-1,.17H14.66v2.91H13.39v-7.63h2l.71,0a5.09,5.09,0,0,1,.52.07,2.66,2.66,0,0,1,.39.11,1.91,1.91,0,0,1,.32.16,2.14,2.14,0,0,1,.78.8,2.29,2.29,0,0,1,.27,1.12m-1.42.07a1.35,1.35,0,0,0-.3-1,1.11,1.11,0,0,0-.43-.28,1.89,1.89,0,0,0-.63-.1h-1v2.69h1A1.18,1.18,0,0,0,17,158.49"/><polygon class="cls-1" points="35.76 163.77 31.86 163.77 31.86 156.14 33.12 156.14 33.12 162.73 35.97 162.73 35.76 163.77"/><path class="cls-1" d="M53.42,163.77l-.62-2H50.33l-.62,2H48.4l2.51-7.63h1.46l2.44,7.63Zm-.91-3.07c-.16-.57-.33-1.13-.48-1.68s-.29-1.09-.42-1.62l-.48,1.68-.49,1.62Z"/><path class="cls-1" d="M72.23,163.77H67.57v-.93l3-5,.24-.37c.1-.16.19-.28.27-.39l-.41,0H67.72l.28-1h4.48v1l-3,5c-.06.11-.13.22-.21.34l-.23.32.33,0h3.15Z"/><path class="cls-1" d="M90.22,163.77l-.62-2H87.13l-.62,2H85.2l2.5-7.63h1.47l2.44,7.63Zm-.91-3.07q-.25-.85-.48-1.68t-.42-1.62c-.16.57-.32,1.13-.49,1.68s-.32,1.1-.48,1.62Z"/><path class="cls-1" d="M55.63,146.86h6.61V106a.6.6,0,0,1,.6-.6h6V98.57H49v6.87h6a.6.6,0,0,1,.6.6Z"/><path class="cls-1" d="M0,122H0a8.9,8.9,0,0,0,2.32,6l.82.9-.82.89a8.9,8.9,0,0,0-2.32,6v11.08H6.77V135.65a3.31,3.31,0,0,1,6.62,0v11.21H20V135.78a8.9,8.9,0,0,0-2.32-6l-.82-.89.82-.9A8.9,8.9,0,0,0,20,122V98.57H13.39v23.59a3.31,3.31,0,0,1-6.62,0V98.57H0Z"/><rect class="cls-1" x="97.87" y="98.57" width="6.62" height="48.29"/><path class="cls-1" d="M85.89,146.86H92.5V114.59a19,19,0,0,0-9.92-16.65,19,19,0,0,0-9.93,16.65v32.27h6.62V115.45c0-6.44,2.46-8,3.31-9.06.88,1,3.31,2.62,3.31,9.06v31.41Z"/><path class="cls-1" d="M38.6,146.86h6.62V114.59a19,19,0,0,0-9.93-16.65,19,19,0,0,0-9.92,16.65v32.27H32V115.45c0-6.44,2.46-8,3.31-9.06.89,1,3.31,2.62,3.31,9.06v31.41Z"/><rect class="cls-1" x="32.86" y="126.55" width="4.87" height="4.87" transform="translate(-80.87 62.73) rotate(-45)"/><rect class="cls-1" x="80.14" y="126.55" width="4.87" height="4.87" transform="translate(-67.02 96.17) rotate(-45)"/><path class="cls-1" d="M93.71,27.58A44.61,44.61,0,1,0,69.56,85.89,44.64,44.64,0,0,0,93.71,27.58m-5.9,33.83L87.06,59l2.22-1.16q-.65,1.8-1.47,3.54M61.28,67.3l.49-.19.38-.17,4.62,1.45,1.66,4-2.54,4.8-5.2-1.59L59,71.6ZM45.8,71.6l-1.66,4L39,77.2,36.4,72.4l1.66-4,4.69-1.47.42.19.36.14Zm-29.46-12c-.23-.55-.44-1.1-.64-1.66l2,1.08-.67,2.19c-.25-.53-.49-1.07-.71-1.61m0-29.95c.22-.54.46-1.07.7-1.59l.68,2.22-2,1.09c.21-.58.43-1.15.67-1.72M14.89,55.49a38.65,38.65,0,0,1,0-21.61l3.39-1.8,1.61,5.26a.93.93,0,0,0,.52.58l4.8,2a.92.92,0,0,0,.76,0L29,38.27A24.09,24.09,0,0,0,29,51.1L26,49.49a.92.92,0,0,0-.76,0l-4.8,2a.93.93,0,0,0-.52.58l-1.61,5.26ZM43.64,22l-.47.18-.56.25-4.5-1.38-1.66-4L39,12.22l5.22,1.64,1.66,4ZM59,17.87l1.66-4,5.21-1.64,2.53,4.85-1.66,4-4.46,1.36c-.36-.16-.73-.31-1.1-.45ZM74.92,35.36c-.08-.2-.17-.38-.25-.57L76,30.37l4-1.66,4.84,2.53-1.64,5.21-4,1.66-4.08-2.17c-.08-.19-.15-.39-.23-.58M73.05,49.29l-.78-2.53a.89.89,0,0,0-.52-.57l-3.64-1.51,3.64-1.51a.92.92,0,0,0,.52-.57L73.06,40a21.07,21.07,0,0,1,0,9.25M63.18,59.72,61,64l-.42.19-.54.2-4.57-1.43L53.4,58l2.27-5.47,5.47,2.27ZM44.39,64.15c-.19-.08-.37-.18-.57-.26l-2.17-4.17,2.05-4.93,5.47-2.27L51.44,58l-2,4.94-4.5,1.41-.5-.19M31.83,40.26l.74,2.34a.91.91,0,0,0,.51.57l3.65,1.51-3.65,1.51a.91.91,0,0,0-.51.57l-.73,2.32a20.82,20.82,0,0,1,0-8.82m9.83-10.62,2.25-4.25.48-.23.38-.14,4.62,1.42,2,4.92-2.27,5.48L43.7,34.57Zm18.89-4.48.34.16,2.29,4.32-2,4.93-5.47,2.27L53.4,31.36l2-4.92L60.13,25l.42.16M72,36.58l.14.36-1.45,4.72-4.93,2-5.47-2.27L62.53,36l4.93-2,4.34,2.3c0,.12.12.24.17.36M52.42,49.21l-3.21-1.33-1.33-3.2,1.33-3.21,3.21-1.32,3.2,1.32L57,44.68l-1.33,3.21Zm-6.5-4.53-.65,1.57-3.8-1.57,3.8-1.57Zm13,0,.65-1.57,3.79,1.57-3.79,1.57Zm-.34-3.94L57,40.08l-.65-1.57,3.8-1.57ZM54,37.53l-1.57.65-1.57-.65,1.57-3.79Zm-5.52,1-.65,1.57-1.57.66-1.57-3.8Zm-3.9,2.92L39.1,43.7l-4.93-2.05-1.42-4.5c.08-.19.15-.38.22-.57s.16-.32.24-.49l4.17-2.17,4.93,2ZM33,52.73l-.21-.55,1.41-4.48,4.93-2,5.47,2.27L42.31,53.4l-4.93,2-4.15-2.16c-.08-.18-.18-.36-.26-.55m13.28-4.11,1.57.65.65,1.58-3.79,1.57Zm4.6,3.21,1.57-.65,1.57.65-1.57,3.79Zm5.51-1L57,49.27l1.57-.65,1.58,3.8Zm3.9-2.92,5.47-2.27,4.93,2,1.43,4.68c-.1.26-.21.52-.32.77l-4.31,2.29-4.93-2Zm7.67-15.82a.9.9,0,0,0-.77,0l-3.65,1.51L65,29.94a.9.9,0,0,0,0-.77l-1.23-2.33a20.84,20.84,0,0,1,6.53,6.52ZM54.5,24.83a.89.89,0,0,0-.57.52L52.42,29l-1.51-3.64a.94.94,0,0,0-.57-.52l-2.48-.76a20.51,20.51,0,0,1,4.61-.53,21.15,21.15,0,0,1,4.55.51ZM39.81,29.94l1.52,3.65-3.65-1.51a.9.9,0,0,0-.77,0l-2.18,1.14A20.9,20.9,0,0,1,41,26.93l-1.19,2.24a.9.9,0,0,0,0,.77M30,35.36c-.06.14-.11.29-.17.43L25.5,38.06l-4-1.66L19.9,31.21l4.8-2.55,4,1.66L30.18,35a3.73,3.73,0,0,0-.16.35M21.49,53l4-1.66,4.37,2.28L30,54c.05.12.11.24.16.37L28.7,59l-4,1.67-4.8-2.55Zm15.42,4.29a.9.9,0,0,0,.77,0l3.65-1.51-1.52,3.65a.9.9,0,0,0,0,.77L41,62.35a20.81,20.81,0,0,1-6.21-6.22Zm13.43,7.28a.92.92,0,0,0,.57-.52l1.51-3.64L53.93,64a.9.9,0,0,0,.56.52l2.41.76a20.8,20.8,0,0,1-8.92,0ZM65,59.42l-1.51-3.65,3.65,1.51a.9.9,0,0,0,.77,0L70.24,56a21,21,0,0,1-6.44,6.43L65,60.19a.94.94,0,0,0,0-.77M74.92,54l.21-.53,4.1-2.18,4,1.66,1.64,5.21L80,60.65,76,59l-1.36-4.44c.09-.2.18-.39.26-.59m9.92-2a.9.9,0,0,0-.52-.56l-4.8-2a.91.91,0,0,0-.77,0l-2.81,1.49a24,24,0,0,0,0-12.51l2.79,1.48a.91.91,0,0,0,.77,0l4.8-2a.9.9,0,0,0,.52-.56l1.67-5.31L90.1,34a38.93,38.93,0,0,1,0,21.46l-3.55,1.85Zm3.78-22.28c.25.61.49,1.22.7,1.83l-2.26-1.18.77-2.44c.28.59.54,1.19.79,1.79m-2-4.07-1.21,3.87-4.94-2.57a.88.88,0,0,0-.76,0l-4.8,2a.89.89,0,0,0-.52.57l-.93,3a24.25,24.25,0,0,0-8.87-8.84l3.06-.93a.89.89,0,0,0,.57-.52l2-4.8a.9.9,0,0,0,0-.77l-2.57-4.93,3.85-1.21A38.7,38.7,0,0,1,86.64,25.61M69.18,9.28,66.77,10,65.6,7.8c.62.22,1.24.46,1.85.71s1.16.5,1.73.77M63.15,7,65,10.59,59.7,12.26a.92.92,0,0,0-.57.52l-2,4.79a.9.9,0,0,0,0,.77l1.5,2.84a24.1,24.1,0,0,0-12.56,0l1.52-2.87a.9.9,0,0,0,0-.77l-2-4.79a.9.9,0,0,0-.56-.52l-5.31-1.67,1.84-3.53A38.46,38.46,0,0,1,63.15,7m-23.94.84L38.07,10,35.73,9.3c.58-.28,1.18-.54,1.78-.79s1.13-.45,1.7-.65m-5.77,2.62,3.78,1.19L34.64,16.6a.94.94,0,0,0,0,.77l2,4.8a.93.93,0,0,0,.58.52l3.11.95a24.11,24.11,0,0,0-8.94,9l-1-3.29a.9.9,0,0,0-.52-.56l-4.79-2a.93.93,0,0,0-.78,0l-4.86,2.58-1.13-3.68A38.74,38.74,0,0,1,33.44,10.48M18.24,63.57l1.12-3.65,4.86,2.58a.94.94,0,0,0,.43.1,1,1,0,0,0,.35-.06l4.79-2a.89.89,0,0,0,.52-.57l1-3.31a24,24,0,0,0,9.06,9.08l-3.3,1a.9.9,0,0,0-.56.52l-2,4.79a.9.9,0,0,0,0,.77l2.58,4.87-3.64,1.12a39,39,0,0,1-15.3-15.29m19.81,15.8,1.07,2c-1.11-.4-2.2-.85-3.26-1.35Zm3.56,2.84-1.8-3.38,5.27-1.61a.89.89,0,0,0,.57-.52l2-4.8a.94.94,0,0,0,0-.77l-1.6-3a23.94,23.94,0,0,0,12.79,0l-1.57,3a.9.9,0,0,0,0,.77l2,4.8a.92.92,0,0,0,.57.52L65,78.83,63.2,82.27a38.92,38.92,0,0,1-21.59-.06m24.06-.73,1.12-2.11,2.29.7c-.54.26-1.08.5-1.63.73s-1.19.47-1.78.68m5.73-2.59-3.75-1.15,2.59-4.87a.9.9,0,0,0,0-.77l-2-4.79a.89.89,0,0,0-.57-.52l-3.23-1a24,24,0,0,0,9-8.89l.94,3a.89.89,0,0,0,.52.57l4.8,2a1,1,0,0,0,.34.07.88.88,0,0,0,.42-.11l4.94-2.57,1.19,3.81A39,39,0,0,1,71.4,78.89"/></g></g></svg>